<svg width="14" height="14" viewBox="0 0 14 14" fill="none" xmlns="http://www.w3.org/2000/svg">
<path d="M6.99844 1.89844C8.64844 1.89844 8.87344 1.89844 9.54844 1.89844C10.1484 1.89844 10.4484 2.04844 10.6734 2.12344C10.9734 2.27344 11.1984 2.34844 11.4234 2.57344C11.6484 2.79844 11.7984 3.02344 11.8734 3.32344C11.9484 3.54844 12.0234 3.84844 12.0984 4.44844C12.0984 5.12344 12.0984 5.27344 12.0984 6.99844C12.0984 8.72344 12.0984 8.87344 12.0984 9.54844C12.0984 10.1484 11.9484 10.4484 11.8734 10.6734C11.7234 10.9734 11.6484 11.1984 11.4234 11.4234C11.1984 11.6484 10.9734 11.7984 10.6734 11.8734C10.4484 11.9484 10.1484 12.0234 9.54844 12.0984C8.87344 12.0984 8.72344 12.0984 6.99844 12.0984C5.27344 12.0984 5.12344 12.0984 4.44844 12.0984C3.84844 12.0984 3.54844 11.9484 3.32344 11.8734C3.02344 11.7234 2.79844 11.6484 2.57344 11.4234C2.34844 11.1984 2.19844 10.9734 2.12344 10.6734C2.04844 10.4484 1.97344 10.1484 1.89844 9.54844C1.89844 8.87344 1.89844 8.72344 1.89844 6.99844C1.89844 5.27344 1.89844 5.12344 1.89844 4.44844C1.89844 3.84844 2.04844 3.54844 2.12344 3.32344C2.27344 3.02344 2.34844 2.79844 2.57344 2.57344C2.79844 2.34844 3.02344 2.19844 3.32344 2.12344C3.54844 2.04844 3.84844 1.97344 4.44844 1.89844C5.12344 1.89844 5.34844 1.89844 6.99844 1.89844ZM6.99844 0.773438C5.27344 0.773438 5.12344 0.773438 4.44844 0.773438C3.77344 0.773438 3.32344 0.923438 2.94844 1.07344C2.57344 1.22344 2.19844 1.44844 1.82344 1.82344C1.44844 2.19844 1.29844 2.49844 1.07344 2.94844C0.923438 3.32344 0.848438 3.77344 0.773438 4.44844C0.773438 5.12344 0.773438 5.34844 0.773438 6.99844C0.773438 8.72344 0.773438 8.87344 0.773438 9.54844C0.773438 10.2234 0.923438 10.6734 1.07344 11.0484C1.22344 11.4234 1.44844 11.7984 1.82344 12.1734C2.19844 12.5484 2.49844 12.6984 2.94844 12.9234C3.32344 13.0734 3.77344 13.1484 4.44844 13.2234C5.12344 13.2234 5.34844 13.2234 6.99844 13.2234C8.64844 13.2234 8.87344 13.2234 9.54844 13.2234C10.2234 13.2234 10.6734 13.0734 11.0484 12.9234C11.4234 12.7734 11.7984 12.5484 12.1734 12.1734C12.5484 11.7984 12.6984 11.4984 12.9234 11.0484C13.0734 10.6734 13.1484 10.2234 13.2234 9.54844C13.2234 8.87344 13.2234 8.64844 13.2234 6.99844C13.2234 5.34844 13.2234 5.12344 13.2234 4.44844C13.2234 3.77344 13.0734 3.32344 12.9234 2.94844C12.7734 2.57344 12.5484 2.19844 12.1734 1.82344C11.7984 1.44844 11.4984 1.29844 11.0484 1.07344C10.6734 0.923438 10.2234 0.848438 9.54844 0.773438C8.87344 0.773438 8.72344 0.773438 6.99844 0.773438Z" fill="white"/>
<path d="M6.99844 3.77344C5.19844 3.77344 3.77344 5.19844 3.77344 6.99844C3.77344 8.79844 5.19844 10.2234 6.99844 10.2234C8.79844 10.2234 10.2234 8.79844 10.2234 6.99844C10.2234 5.19844 8.79844 3.77344 6.99844 3.77344ZM6.99844 9.09844C5.87344 9.09844 4.89844 8.19844 4.89844 6.99844C4.89844 5.87344 5.79844 4.89844 6.99844 4.89844C8.12344 4.89844 9.09844 5.79844 9.09844 6.99844C9.09844 8.12344 8.12344 9.09844 6.99844 9.09844Z" fill="white"/>
<path d="M10.2984 4.44844C10.7127 4.44844 11.0484 4.11265 11.0484 3.69844C11.0484 3.28422 10.7127 2.94844 10.2984 2.94844C9.88422 2.94844 9.54844 3.28422 9.54844 3.69844C9.54844 4.11265 9.88422 4.44844 10.2984 4.44844Z" fill="white"/>
</svg>
